<svg width="23" height="23" viewBox="0 0 23 23" fill="none" xmlns="http://www.w3.org/2000/svg">
<path fill-rule="evenodd" clip-rule="evenodd" d="M21.3873 2.88334L22.4539 18.8833C22.4807 19.2931 22.4232 19.704 22.285 20.0907C22.1467 20.4774 21.9307 20.8316 21.6501 21.1315C21.3696 21.4314 21.0306 21.6705 20.654 21.8343C20.2774 21.998 19.8712 22.0828 19.4606 22.0833H3.73527C3.32451 22.0831 2.91817 21.9986 2.54139 21.8351C2.16461 21.6715 1.82542 21.4323 1.54482 21.1323C1.26422 20.8323 1.04818 20.478 0.910079 20.0911C0.771974 19.7043 0.714745 19.2932 0.741934 18.8833L1.8086 2.88334C1.85934 2.124 2.19676 1.41232 2.75254 0.892443C3.30832 0.372562 4.0409 0.083334 4.80193 0.0833359H18.3939C19.155 0.083334 19.8876 0.372562 20.4433 0.892443C20.9991 1.41232 21.3365 2.124 21.3873 2.88334ZM14.9126 5.98734C14.6145 6.61394 14.1449 7.14322 13.5582 7.51379C12.9715 7.88436 12.2918 8.08105 11.5979 8.08105C10.904 8.08105 10.2243 7.88436 9.63766 7.51379C9.05099 7.14322 8.58138 6.61394 8.28327 5.98734C8.22689 5.86871 8.14769 5.76235 8.05021 5.67433C7.95272 5.58631 7.83885 5.51835 7.7151 5.47433C7.59135 5.43032 7.46015 5.41111 7.32897 5.4178C7.1978 5.42449 7.06923 5.45696 6.9506 5.51334C6.83197 5.56972 6.72561 5.64891 6.63759 5.7464C6.54957 5.84388 6.48161 5.95775 6.4376 6.0815C6.39358 6.20525 6.37437 6.33646 6.38106 6.46763C6.38776 6.5988 6.42022 6.72737 6.4766 6.846C6.93584 7.81567 7.66093 8.63503 8.56754 9.2088C9.47415 9.78257 10.525 10.0872 11.5979 10.0872C12.6709 10.0872 13.7217 9.78257 14.6283 9.2088C15.5349 8.63503 16.26 7.81567 16.7193 6.846C16.7756 6.72737 16.8081 6.5988 16.8148 6.46763C16.8215 6.33646 16.8023 6.20525 16.7583 6.0815C16.7143 5.95775 16.6463 5.84388 16.5583 5.7464C16.4703 5.64891 16.3639 5.56972 16.2453 5.51334C16.1266 5.45696 15.9981 5.42449 15.8669 5.4178C15.7357 5.41111 15.6045 5.43032 15.4808 5.47433C15.357 5.51835 15.2431 5.58631 15.1457 5.67433C15.0482 5.76235 14.969 5.86871 14.9126 5.98734Z" fill="white"/>
</svg>
