<svg width="72" height="71" viewBox="0 0 72 71" fill="none" xmlns="http://www.w3.org/2000/svg">
<g id="Frame" clip-path="url(#clip0_442_514)">
<g id="Group">
<path id="Vector" d="M10.7983 46.0627C10.3211 46.0627 9.86343 45.8731 9.52601 45.5357C9.18859 45.1983 8.99902 44.7406 8.99902 44.2635V31.4289C8.99902 30.9518 9.18859 30.4941 9.52601 30.1567C9.86343 29.8193 10.3211 29.6297 10.7983 29.6297C11.2754 29.6297 11.7331 29.8193 12.0705 30.1567C12.4079 30.4941 12.5975 30.9518 12.5975 31.4289V44.2635C12.5975 44.7406 12.4079 45.1983 12.0705 45.5357C11.7331 45.8731 11.2754 46.0627 10.7983 46.0627ZM18.9056 17.4046C17.1844 17.4046 15.5019 16.8942 14.0709 15.938C12.6398 14.9817 11.5244 13.6226 10.8657 12.0325C10.2071 10.4424 10.0347 8.69263 10.3705 7.00455C10.7063 5.31647 11.5351 3.76588 12.7521 2.54884C13.9692 1.33181 15.5198 0.502995 17.2079 0.167216C18.8959 -0.168563 20.6457 0.00377053 22.2358 0.662425C23.8259 1.32108 25.185 2.43647 26.1413 3.86755C27.0975 5.29864 27.6079 6.98113 27.6079 8.70228C27.6053 11.0095 26.6877 13.2215 25.0562 14.8529C23.4248 16.4844 21.2128 17.402 18.9056 17.4046ZM18.9056 3.59846C17.8961 3.59846 16.9094 3.8978 16.0701 4.45861C15.2307 5.01943 14.5766 5.81653 14.1903 6.74913C13.804 7.68173 13.7029 8.70794 13.8998 9.69798C14.0968 10.688 14.5829 11.5974 15.2966 12.3112C16.0104 13.025 16.9198 13.5111 17.9099 13.708C18.8999 13.905 19.9261 13.8039 20.8587 13.4176C21.7913 13.0313 22.5884 12.3771 23.1492 11.5378C23.7101 10.6985 24.0094 9.71172 24.0094 8.70228C24.0078 7.34915 23.4696 6.0519 22.5128 5.09509C21.556 4.13828 20.2587 3.60005 18.9056 3.59846ZM47.277 30.8652C46.9296 30.8654 46.5895 30.765 46.2979 30.5762C46.0063 30.3874 45.7756 30.1181 45.6336 29.801C45.4917 29.4839 45.4446 29.1325 45.4981 28.7892C45.5515 28.4459 45.7032 28.1254 45.9348 27.8665L55.7106 16.908C56.0287 16.5518 56.4753 16.3366 56.9521 16.3098C57.4289 16.2829 57.8968 16.4465 58.2529 16.7646C58.6091 17.0827 58.8243 17.5293 58.8511 18.0061C58.878 18.4829 58.7144 18.9508 58.3963 19.3069L48.6205 30.2594C48.452 30.4495 48.2452 30.6018 48.0136 30.7062C47.7821 30.8106 47.531 30.8648 47.277 30.8652Z" fill="white" stroke="white"/>
<path id="Vector_2" d="M66.4928 47.1122H34.211C33.7338 47.1122 33.2762 46.9227 32.9388 46.5852C32.6014 46.2478 32.4118 45.7902 32.4118 45.313C32.4118 44.8358 32.6014 44.3782 32.9388 44.0407C33.2762 43.7033 33.7338 43.5138 34.211 43.5138H66.4928C66.97 43.5138 67.4276 43.3242 67.7651 42.9868C68.1025 42.6494 68.292 42.1917 68.292 41.7145V5.43846C68.292 4.96128 68.1025 4.50363 67.7651 4.16621C67.4276 3.82879 66.97 3.63923 66.4928 3.63923H31.1967C30.7195 3.63923 30.2619 3.44967 29.9245 3.11225C29.5871 2.77483 29.3975 2.31719 29.3975 1.84C29.3975 1.36282 29.5871 0.905175 29.9245 0.567754C30.2619 0.230333 30.7195 0.0407715 31.1967 0.0407715H66.4928C67.2016 0.0407715 67.9035 0.180387 68.5584 0.451646C69.2133 0.722905 69.8083 1.1205 70.3096 1.62172C70.8108 2.12294 71.2084 2.71798 71.4796 3.37285C71.7509 4.02773 71.8905 4.72963 71.8905 5.43846V41.7145C71.8905 43.1461 71.3218 44.519 70.3096 45.5313C69.2973 46.5435 67.9244 47.1122 66.4928 47.1122ZM18.9056 71.0012H10.7983C10.3211 71.0012 9.86343 70.8116 9.52601 70.4742C9.18859 70.1368 8.99902 69.6791 8.99902 69.202V44.2634C8.99902 43.7863 9.18859 43.3286 9.52601 42.9912C9.86343 42.6538 10.3211 42.4642 10.7983 42.4642C11.2754 42.4642 11.7331 42.6538 12.0705 42.9912C12.4079 43.3286 12.5975 43.7863 12.5975 44.2634V67.4027H18.9056C19.3828 67.4027 19.8404 67.5923 20.1778 67.9297C20.5153 68.2671 20.7048 68.7248 20.7048 69.202C20.7048 69.6791 20.5153 70.1368 20.1778 70.4742C19.8404 70.8116 19.3828 71.0012 18.9056 71.0012Z" fill="white" stroke="white"/>
<path id="Vector_3" d="M27.0142 71.0013H18.9057C18.4285 71.0013 17.9709 70.8117 17.6335 70.4743C17.296 70.1369 17.1065 69.6792 17.1065 69.202V45.3131C17.1065 44.8359 17.296 44.3782 17.6335 44.0408C17.9709 43.7034 18.4285 43.5138 18.9057 43.5138C19.3829 43.5138 19.8405 43.7034 20.178 44.0408C20.5154 44.3782 20.7049 44.8359 20.7049 45.3131V67.4028H25.215V33.3854C25.2149 32.6386 25.4363 31.9086 25.8511 31.2877C26.266 30.6668 26.8556 30.1829 27.5456 29.8972C28.2355 29.6115 28.9946 29.5369 29.727 29.6827C30.4594 29.8285 31.132 30.1883 31.6598 30.7165L34.4798 33.5329C34.6887 33.7428 34.9372 33.9092 35.2108 34.0224C35.4845 34.1357 35.7778 34.1935 36.074 34.1926H44.4476C44.7477 34.1927 45.0448 34.1328 45.3215 34.0166C45.5982 33.9004 45.8489 33.7301 46.0589 33.5157C46.2689 33.3013 46.434 33.0472 46.5446 32.7681C46.6551 32.4891 46.7088 32.1909 46.7026 31.8908C46.6774 30.6733 45.6303 29.6838 44.3684 29.6838H37.7484C37.2714 29.6833 36.8141 29.4935 36.477 29.156L32.6038 25.284C31.9012 24.5773 31.0652 24.017 30.1445 23.6357C29.2237 23.2543 28.2364 23.0596 27.2397 23.0626H25.8435L23.1243 25.3236C21.9397 26.3082 20.4479 26.8472 18.9075 26.8472C17.3671 26.8472 15.8753 26.3082 14.6907 25.3236L11.9691 23.0626H10.7984C9.12564 23.0645 7.52195 23.7298 6.33914 24.9126C5.15633 26.0955 4.49099 27.6991 4.48908 29.3719C4.48908 29.8491 4.29952 30.3067 3.9621 30.6441C3.62468 30.9816 3.16704 31.1711 2.68985 31.1711C2.21267 31.1711 1.75503 30.9816 1.41761 30.6441C1.08019 30.3067 0.890625 29.8491 0.890625 29.3719C0.893482 26.7451 1.93825 24.2267 3.7957 22.3692C5.65314 20.5118 8.17156 19.467 10.7984 19.4641H12.6192C13.0395 19.4643 13.4465 19.6115 13.7695 19.8804L16.9889 22.5564C17.5278 23.0052 18.2069 23.251 18.9081 23.251C19.6094 23.251 20.2885 23.0052 20.8273 22.5564L24.0443 19.8792C24.3674 19.6103 24.7743 19.4631 25.1946 19.4629H27.2421C28.7114 19.4589 30.167 19.7463 31.5244 20.3086C32.8819 20.8709 34.1143 21.6969 35.1504 22.7387L38.4969 26.0853H44.3744C47.5818 26.0853 50.2423 28.657 50.3059 31.8188C50.3217 32.5974 50.182 33.3712 49.895 34.0951C49.6079 34.8189 49.1794 35.4783 48.6344 36.0344C48.0894 36.5906 47.4389 37.0325 46.721 37.3341C46.0031 37.6357 45.2323 37.7911 44.4536 37.7911H36.0692C35.3003 37.7933 34.5387 37.6429 33.8283 37.3487C33.118 37.0544 32.4731 36.6222 31.9309 36.077L29.1157 33.2582C29.0927 33.2354 29.0639 33.2193 29.0325 33.2114C29.001 33.2036 28.968 33.2045 28.937 33.2138C28.9019 33.2257 28.8714 33.2483 28.8499 33.2784C28.8284 33.3086 28.8169 33.3447 28.8171 33.3818V69.1984C28.8175 69.4353 28.7712 69.67 28.6808 69.8889C28.5904 70.1079 28.4576 70.3068 28.2901 70.4743C28.1226 70.6418 27.9237 70.7746 27.7047 70.865C27.4858 70.9554 27.2511 71.0017 27.0142 71.0013Z" fill="white" stroke="white"/>
<path id="Vector_4" d="M6.74412 50.117C5.19216 50.1154 3.70423 49.4982 2.60683 48.4008C1.50943 47.3034 0.892213 45.8154 0.890625 44.2635L0.890625 29.3707C0.890625 28.8935 1.08019 28.4358 1.41761 28.0984C1.75503 27.761 2.21267 27.5714 2.68985 27.5714C3.16704 27.5714 3.62468 27.761 3.9621 28.0984C4.29952 28.4358 4.48908 28.8935 4.48908 29.3707V44.2635C4.48908 44.5596 4.54741 44.8529 4.66074 45.1265C4.77406 45.4 4.94017 45.6486 5.14957 45.858C5.35897 46.0674 5.60756 46.2335 5.88115 46.3469C6.15475 46.4602 6.44798 46.5185 6.74412 46.5185C7.04025 46.5185 7.33349 46.4602 7.60708 46.3469C7.88068 46.2335 8.12927 46.0674 8.33867 45.858C8.54807 45.6486 8.71417 45.4 8.8275 45.1265C8.94083 44.8529 8.99915 44.5596 8.99915 44.2635C8.99915 43.7863 9.18871 43.3287 9.52614 42.9912C9.86356 42.6538 10.3212 42.4643 10.7984 42.4643C11.2756 42.4643 11.7332 42.6538 12.0706 42.9912C12.4081 43.3287 12.5976 43.7863 12.5976 44.2635C12.596 45.8154 11.9788 47.3034 10.8814 48.4008C9.78401 49.4982 8.29607 50.1154 6.74412 50.117ZM57.51 71.0012H2.69345C2.21627 71.0012 1.75863 70.8117 1.42121 70.4743C1.08378 70.1368 0.894223 69.6792 0.894223 69.202C0.894223 68.7248 1.08378 68.2672 1.42121 67.9298C1.75863 67.5923 2.21627 67.4028 2.69345 67.4028H57.51C57.9872 67.4028 58.4448 67.5923 58.7822 67.9298C59.1196 68.2672 59.3092 68.7248 59.3092 69.202C59.3092 69.6792 59.1196 70.1368 58.7822 70.4743C58.4448 70.8117 57.9872 71.0012 57.51 71.0012ZM47.7222 19.9055H38.3938C37.9166 19.9055 37.4589 19.716 37.1215 19.3785C36.7841 19.0411 36.5945 18.5835 36.5945 18.1063C36.5945 17.6291 36.7841 17.1715 37.1215 16.834C37.4589 16.4966 37.9166 16.3071 38.3938 16.3071H47.7222C48.1994 16.3071 48.657 16.4966 48.9944 16.834C49.3318 17.1715 49.5214 17.6291 49.5214 18.1063C49.5214 18.5835 49.3318 19.0411 48.9944 19.3785C48.657 19.716 48.1994 19.9055 47.7222 19.9055ZM57.0506 11.7718H38.3938C37.9166 11.7718 37.4589 11.5822 37.1215 11.2448C36.7841 10.9074 36.5945 10.4498 36.5945 9.97257C36.5945 9.49538 36.7841 9.03774 37.1215 8.70032C37.4589 8.3629 37.9166 8.17334 38.3938 8.17334H57.0506C57.5278 8.17334 57.9854 8.3629 58.3228 8.70032C58.6602 9.03774 58.8498 9.49538 58.8498 9.97257C58.8498 10.4498 58.6602 10.9074 58.3228 11.2448C57.9854 11.5822 57.5278 11.7718 57.0506 11.7718Z" fill="white" stroke="white"/>
</g>
</g>
<defs>
<clipPath id="clip0_442_514">
<rect width="71" height="71" fill="white" transform="translate(0.890625)"/>
</clipPath>
</defs>
</svg>
