<svg width="40" height="37" viewBox="0 0 40 37" fill="none" xmlns="http://www.w3.org/2000/svg">
<g id="gg:check-o">
<g id="Group">
<path id="Vector" d="M17.0107 24.7293L10.5791 18.2961L12.7225 16.1528L17.0107 20.4395L25.5842 11.8645L27.7291 14.0094L17.0107 24.7262V24.7293Z" fill="#018D29"/>
<path id="Vector_2" fill-rule="evenodd" clip-rule="evenodd" d="M3 18.1899C3 8.98129 10.4654 1.51587 19.674 1.51587C28.8826 1.51587 36.3481 8.98129 36.3481 18.1899C36.3481 27.3985 28.8826 34.8639 19.674 34.8639C10.4654 34.8639 3 27.3985 3 18.1899ZM19.674 31.8323C17.8825 31.8323 16.1085 31.4794 14.4533 30.7938C12.7981 30.1082 11.2942 29.1033 10.0274 27.8365C8.76059 26.5697 7.7557 25.0658 7.07011 23.4106C6.38451 21.7554 6.03164 19.9814 6.03164 18.1899C6.03164 16.3984 6.38451 14.6244 7.07011 12.9692C7.7557 11.314 8.76059 9.81009 10.0274 8.54327C11.2942 7.27646 12.7981 6.27157 14.4533 5.58598C16.1085 4.90038 17.8825 4.54751 19.674 4.54751C23.2922 4.54751 26.7622 5.98483 29.3207 8.54327C31.8791 11.1017 33.3164 14.5717 33.3164 18.1899C33.3164 21.8081 31.8791 25.2781 29.3207 27.8365C26.7622 30.395 23.2922 31.8323 19.674 31.8323Z" fill="#018D29"/>
</g>
</g>
</svg>
