<svg width="71" height="71" viewBox="0 0 71 71" fill="none" xmlns="http://www.w3.org/2000/svg">
<g id="Frame">
<g id="Group">
<path id="Vector" fill-rule="evenodd" clip-rule="evenodd" d="M60.586 24.5572C62.0928 28.0084 62.8684 31.7343 62.8639 35.5001C62.8639 50.6024 50.6016 62.8647 35.4994 62.8647C20.3971 62.8647 8.13477 50.6024 8.13477 35.5001C8.13477 20.3978 20.3971 8.1355 35.4994 8.1355C36.0878 8.1355 36.6521 7.90174 37.0682 7.48564C37.4843 7.06955 37.7181 6.5052 37.7181 5.91675C37.7181 5.3283 37.4843 4.76395 37.0682 4.34785C36.6521 3.93176 36.0878 3.698 35.4994 3.698C17.9476 3.698 3.69727 17.9483 3.69727 35.5001C3.69727 53.0519 17.9476 67.3022 35.4994 67.3022C53.0511 67.3022 67.3014 53.0519 67.3014 35.5001C67.3014 30.9768 66.3548 26.6754 64.6508 22.7763C64.4146 22.2373 63.974 21.8141 63.4258 21.6C62.8777 21.3858 62.267 21.3982 61.7279 21.6344C61.1889 21.8705 60.7658 22.3112 60.5516 22.8593C60.3375 23.4074 60.3499 24.0182 60.586 24.5572Z" fill="white"/>
<path id="Vector_2" fill-rule="evenodd" clip-rule="evenodd" d="M50.2911 3.698C47.5907 3.69878 45.0012 4.77184 43.0918 6.68127C41.1823 8.59071 40.1093 11.1802 40.1085 13.8806C40.1085 15.6378 40.9043 17.7767 42.135 19.8653C44.6052 24.0691 48.7232 28.193 48.7232 28.193C48.929 28.3991 49.1734 28.5626 49.4424 28.6741C49.7115 28.7857 49.9998 28.8431 50.2911 28.8431C50.5823 28.8431 50.8707 28.7857 51.1398 28.6741C51.4088 28.5626 51.6532 28.3991 51.859 28.193C51.859 28.193 55.977 24.0691 58.4472 19.8653C59.6779 17.7767 60.4737 15.6378 60.4737 13.8806C60.4737 8.25975 55.9119 3.698 50.2911 3.698ZM50.2911 8.1355C53.4624 8.1355 56.0362 10.7092 56.0362 13.8806C56.0362 15.4426 54.8736 17.3625 53.6251 19.173C52.5976 20.6379 51.4843 22.0406 50.2911 23.3739C49.3296 22.2911 48.0723 20.7883 46.9571 19.173C45.7086 17.3625 44.546 15.4426 44.546 13.8806C44.546 10.7092 47.1198 8.1355 50.2911 8.1355ZM4.74163 37.3816L14.4154 43.4284C16.1785 44.5289 18.2168 45.1147 20.2936 45.1147H22.5419C24.4855 45.1147 26.3315 45.9637 27.5977 47.4399L30.7069 51.0698C31.4234 51.9049 31.9216 52.9047 32.157 53.9796C32.3924 55.0544 32.3577 56.1709 32.0559 57.229L30.4081 62.9948C30.2597 63.5564 30.3374 64.1537 30.6245 64.6585C30.9116 65.1634 31.3852 65.5356 31.9437 65.6952C32.5021 65.8547 33.1009 65.7889 33.6114 65.5119C34.1219 65.2349 34.5034 64.7688 34.674 64.2137L36.3218 58.4479C36.8257 56.6846 36.8843 54.8238 36.4924 53.0323C36.1006 51.2407 35.2705 49.5744 34.0765 48.1825L30.9643 44.5526C29.9235 43.3368 28.6318 42.3608 27.1779 41.6918C25.7239 41.0228 24.1424 40.6766 22.5419 40.6772H20.2936C19.0481 40.6772 17.8263 40.3281 16.7673 39.6654L7.09055 33.6186C6.84343 33.4551 6.56606 33.3427 6.2748 33.2881C5.98355 33.2336 5.68432 33.2379 5.39477 33.3009C5.10522 33.3638 4.83121 33.4841 4.58892 33.6547C4.34662 33.8253 4.14096 34.0427 3.98405 34.2941C3.82714 34.5454 3.72218 34.8257 3.67535 35.1183C3.62851 35.4109 3.64077 35.7099 3.71138 35.9977C3.78199 36.2855 3.90954 36.5562 4.08648 36.7939C4.26343 37.0316 4.48619 37.2314 4.74163 37.3816Z" fill="white"/>
<path id="Vector_3" fill-rule="evenodd" clip-rule="evenodd" d="M15.7649 12.8243L20.4864 22.2673C21.0026 23.3009 21.7332 24.2125 22.6295 24.9414C23.5258 25.6704 24.5671 26.1999 25.6841 26.4948L30.8849 27.8704C32.1954 28.2166 33.2101 29.252 33.5296 30.5684L35.7573 39.7008C36.2401 41.6831 37.4502 43.4116 39.1475 44.5436L40.5261 45.4607C41.4853 46.1024 42.5702 46.5325 43.7086 46.7221C44.8469 46.9118 46.0127 46.8567 47.1281 46.5606C48.2435 46.2644 49.283 45.734 50.1774 45.0047C51.0718 44.2753 51.8005 43.3638 52.3151 42.3308L54.0161 38.9257C54.2549 38.4489 54.594 38.0294 55.0102 37.696C55.4264 37.3625 55.9097 37.123 56.4271 36.9939L64.6839 34.929C65.2471 34.7793 65.7289 34.414 66.0251 33.912C66.3212 33.41 66.4079 32.8116 66.2664 32.2462C66.125 31.6808 65.7667 31.1937 65.2691 30.8903C64.7715 30.5869 64.1744 30.4915 63.607 30.6246L55.3503 32.6866C54.2123 32.9718 53.1495 33.4997 52.2344 34.2339C51.3194 34.9682 50.5739 35.8915 50.049 36.9407L48.345 40.3457C48.1119 40.8159 47.7811 41.2309 47.3748 41.5629C46.9684 41.895 46.4958 42.1364 45.9886 42.2711C45.4814 42.4058 44.9513 42.4307 44.4338 42.3441C43.9162 42.2574 43.4231 42.0612 42.9874 41.7687L41.6089 40.8516C40.8373 40.3371 40.2872 39.5516 40.0676 38.6506L37.8429 29.5182C37.496 28.096 36.7717 26.7938 35.7466 25.7488C34.7214 24.7039 33.4332 23.9549 32.0179 23.5808L26.8172 22.2052C26.3095 22.0712 25.8363 21.8303 25.4292 21.4987C25.0221 21.1671 24.6904 20.7524 24.4564 20.2823L19.7349 10.8423C19.6062 10.5793 19.4266 10.3444 19.2067 10.1511C18.9867 9.95781 18.7306 9.80999 18.4532 9.71615C18.1759 9.6223 17.8827 9.58429 17.5905 9.60431C17.2984 9.62433 17.0131 9.70197 16.7511 9.83277C16.4891 9.96357 16.2556 10.1449 16.0641 10.3664C15.8725 10.5879 15.7267 10.8451 15.635 11.1232C15.5433 11.4013 15.5076 11.6948 15.5299 11.9867C15.5522 12.2787 15.632 12.5634 15.7649 12.8243Z" fill="white"/>
</g>
</g>
</svg>
