<svg width="71" height="71" viewBox="0 0 71 71" fill="none" xmlns="http://www.w3.org/2000/svg">
<g id="Frame" clip-path="url(#clip0_442_531)">
<g id="Group">
<path id="Vector" d="M29.6563 37.4413H41.3416M35.499 31.3432V18.0273M42.4325 31.8944V40.2147L39.6591 42.9881H31.3388L28.5654 40.2147V31.8944C28.5654 29.3112 28.1947 28.5458 24.4643 23.6532C22.6873 21.3221 21.6318 18.4113 21.6318 15.2539C21.6318 7.59531 27.8404 1.38672 35.499 1.38672C43.1575 1.38672 49.3661 7.59531 49.3661 15.2539C49.3661 18.4113 48.3107 21.3221 46.5336 23.6532C42.8032 28.5459 42.4325 29.3112 42.4325 31.8944Z" stroke="white" stroke-width="3.5" stroke-miterlimit="22.9256" stroke-linecap="round" stroke-linejoin="round"/>
<path id="Vector_2" d="M38.2723 15.2539L35.4989 18.0273L32.7255 15.2539M29.1344 31.8944H41.8633M12.618 15.2539H15.3915M15.6835 3.81348L18.0854 5.20019M15.6835 26.6942L18.0854 25.3075M58.3797 15.2539H55.6062M55.3142 3.81348L52.9124 5.20019M55.3142 26.6942L52.9124 25.3075M2.77232 59.213V54.2553C10.3307 54.2553 14.3616 51.4123 18.0012 50.0204C25.5548 47.1316 31.3633 49.4426 35.4989 56.7594M35.4989 56.7594C39.6345 49.4426 45.443 47.1316 52.9966 50.0204C56.636 51.4123 60.667 54.2553 68.2255 54.2553V59.213M35.4989 56.7594V61.0764M35.4989 62.4631C36.5346 60.6691 38.163 59.9063 40.2334 59.9063H69.612V66.1465H40.151C39.5543 68.1513 37.6975 69.6133 35.4989 69.6133C33.3003 69.6133 31.4436 68.1513 30.8467 66.1465H1.38574V59.9063H30.7644C32.8347 59.9063 34.4632 60.6691 35.4989 62.4631Z" stroke="white" stroke-width="3.5" stroke-miterlimit="22.9256" stroke-linecap="round" stroke-linejoin="round"/>
</g>
</g>
<defs>
<clipPath id="clip0_442_531">
<rect width="71" height="71" fill="white" transform="translate(-0.000976562)"/>
</clipPath>
</defs>
</svg>
