<svg width="24" height="25" viewBox="0 0 24 25" fill="none" xmlns="http://www.w3.org/2000/svg">
<g clip-path="url(#clip0_301_3661)">
<path d="M12.0014 24.499C18.6286 24.499 24.0009 19.1266 24.0009 12.4995C24.0009 5.87236 18.6286 0.5 12.0014 0.5C5.37431 0.5 0.00195312 5.87236 0.00195312 12.4995C0.00195312 19.1266 5.37431 24.499 12.0014 24.499Z" fill="white"/>
<path d="M23.3156 8.5H15.9219C16.2431 11.0634 16.2449 13.8879 15.9281 16.4545H23.3313C23.7752 15.1838 24.0016 13.8472 24.001 12.5011C24.0013 11.0975 23.7582 9.75148 23.3156 8.5Z" fill="#EFECEC"/>
<path d="M15.9208 8.49865H23.3143C23.3133 8.49509 23.312 8.4916 23.3105 8.48821C21.775 4.15775 17.8245 0.971747 13.0781 0.548828C14.9147 1.55574 15.4513 4.74569 15.9208 8.49865Z" fill="#C42B27"/>
<path d="M13.0781 24.4499C17.8332 24.0262 21.7892 20.8292 23.3191 16.4872C23.3231 16.4757 23.3265 16.4643 23.3306 16.4531H15.9272C15.4613 20.2263 14.9225 23.4389 13.0781 24.4499Z" fill="#0B0B0B"/>
<path d="M0 12.5011C0 13.8868 0.237983 15.2163 0.669769 16.4545H16.5445C16.8617 13.8877 16.8594 11.0634 16.5387 8.5H0.685729C0.243101 9.75148 0 11.0975 0 12.5011Z" fill="#EFEFEF"/>
<path d="M0.689347 8.48863C0.688194 8.49215 0.686927 8.49563 0.685547 8.49907H16.5385C16.0686 4.74616 14.9143 1.55616 13.0776 0.549299C12.7223 0.517835 12.3631 0.5 11.9997 0.5C6.77948 0.5 2.34028 3.834 0.689347 8.48863Z" fill="#CC3434"/>
<path d="M16.5447 16.4531H0.669922C0.673925 16.4643 0.677674 16.4757 0.681474 16.4872C2.32577 21.1538 6.77141 24.4995 12 24.4995C12.3634 24.4995 12.7226 24.4817 13.0779 24.4499C14.9224 23.4389 16.0788 20.2263 16.5447 16.4531Z" fill="#151515"/>
<path d="M14.3426 15.2921C14.1974 15.2532 13.9822 15.2851 13.8086 15.2747C13.7756 15.294 13.7799 15.3508 13.7651 15.3887C13.7821 15.424 13.8176 15.4046 13.8528 15.4323C13.9075 15.4848 13.9448 15.5558 14.0278 15.5811C13.9564 15.6559 13.9583 15.8035 13.8528 15.8439C13.8706 16.0159 13.7588 16.0462 13.59 16.08C12.782 16.2411 11.5256 16.2573 10.6667 16.141C10.5601 16.127 10.247 16.0803 10.1674 16.0101C10.136 15.9816 10.117 15.9394 10.1239 15.8609C10.0225 15.8105 10.0214 15.6599 9.94025 15.5896C10.0535 15.5512 10.0753 15.4216 10.2031 15.3971C10.2069 15.3435 10.1838 15.3168 10.1764 15.2747C9.99619 15.2844 9.77715 15.2545 9.625 15.2922C9.63903 15.0964 9.64354 14.874 9.66026 14.6445C9.68246 14.3378 9.67921 13.9784 9.70384 13.6731C9.71671 13.5173 9.71159 13.3563 9.72167 13.2005C9.73986 12.9047 9.72679 12.6111 9.74802 12.3339C9.77057 12.0349 9.76013 11.7154 9.78288 11.4327C9.80619 11.1396 9.8869 10.9054 10.2291 10.9334C10.6347 10.9672 10.8896 11.3069 11.3318 11.3097C11.5372 11.1828 11.6867 10.6896 11.6293 10.3209C11.6029 10.1503 11.4224 9.90381 11.2445 9.99704C11.2181 9.7094 11.4921 9.74806 11.6731 9.83942C11.7282 9.80491 11.7445 9.75642 11.8044 9.74315C11.9527 9.71016 12.1434 9.77765 12.2159 9.82199C12.3537 9.9063 12.4175 10.0933 12.4173 10.3298C12.417 10.4522 12.3897 10.574 12.3995 10.6972C12.4213 10.9584 12.5101 11.1708 12.6185 11.3012C13.0293 11.3389 13.3313 10.973 13.7298 10.9334C13.8994 10.9168 14.0407 10.9804 14.115 11.091C14.2283 11.5115 14.1923 11.9759 14.2287 12.4477C14.2505 12.7304 14.2376 13.0258 14.2551 13.3144C14.2946 13.9667 14.3141 14.6217 14.3426 15.2921ZM12.3731 10.7146C12.3553 10.477 12.4213 10.2224 12.3383 10.0056C12.2994 9.96862 12.2769 9.91516 12.2242 9.89186H12.0933C12.0277 9.92712 12.0037 9.99988 11.9357 10.0143C11.7738 10.0488 11.761 9.8951 11.6382 9.84808C11.6064 9.83556 11.5632 9.84261 11.5242 9.83024C11.4069 9.79442 11.3373 9.75257 11.2792 9.91795C11.4935 9.90543 11.6848 9.9746 11.7343 10.1544C11.6119 10.1203 11.6462 10.2302 11.6555 10.3028C11.7006 10.6635 11.6202 10.9542 11.4979 11.152C11.4397 11.2463 11.3651 11.3201 11.3228 11.4059C11.4501 11.3822 11.5651 11.3896 11.6292 11.3093C11.715 11.2024 11.6965 10.9737 11.7516 10.8456C11.7465 11.1173 11.6694 11.3178 11.5418 11.4669C11.8537 11.4229 11.9079 11.1628 11.9356 10.8456C11.9585 11.0029 11.9166 11.1713 11.8653 11.2831C11.9057 11.3335 11.9286 11.4012 11.9881 11.4322C12.0373 11.3911 12.0739 11.3371 12.1018 11.2746C12.0563 11.1714 12.0023 10.9838 12.0493 10.8457C12.0453 11.1823 12.1374 11.423 12.4259 11.4669C12.3098 11.3201 12.1976 11.0768 12.233 10.8367C12.2431 11.0251 12.2886 11.178 12.3467 11.3182C12.4271 11.3694 12.5284 11.3993 12.6535 11.4059C12.5137 11.2356 12.3957 11.0092 12.3731 10.7146ZM11.8221 9.9182V9.95306C11.8432 9.94967 11.8411 9.96938 11.8655 9.96198C11.8733 9.95195 11.8775 9.93867 11.8744 9.91841C11.8631 9.9065 11.8331 9.9065 11.8221 9.9182ZM10.1328 10.9596C9.93934 10.9747 9.83491 11.1365 9.83532 11.3274C9.92003 11.2982 10.0007 11.219 10.0892 11.2222C10.0418 12.5393 9.98408 13.7375 9.93159 15.0384C9.85543 15.1102 9.75805 15.1619 9.70404 15.2571H10.1766C10.2014 15.0483 10.436 15.0055 10.6318 15.0642C10.7246 14.743 10.819 14.4232 10.9035 14.0928C10.8165 14.146 10.7722 14.2415 10.6844 14.2942C10.7159 13.4519 10.7585 12.6323 10.7896 11.7736C10.9247 11.8787 11.1441 11.885 11.3584 11.8524C11.6149 11.8132 11.8368 11.6711 11.9971 11.5722C12.1651 11.7213 12.473 11.846 12.7849 11.8696C12.9791 11.8844 13.0687 11.8212 13.1876 11.7908C13.2057 12.649 13.2672 13.4883 13.2838 14.3029C13.2124 14.237 13.1535 14.1589 13.0741 14.1013C13.1514 14.4325 13.252 14.7404 13.3365 15.0642C13.5404 14.9998 13.7654 15.0557 13.8005 15.2571C13.9547 15.2512 14.1328 15.2687 14.2726 15.2482C14.2175 15.1504 14.0816 15.1224 14.0455 15.0206C14.0044 14.906 14.0343 14.7313 14.028 14.5828C13.9799 13.5244 13.9127 12.2742 13.8878 11.2137C13.9869 11.237 14.0498 11.2967 14.1417 11.3274C14.122 11.1165 14.0345 10.9729 13.8353 10.9596C13.3823 10.9293 13.121 11.346 12.6627 11.3359C12.6627 11.3915 12.7519 11.404 12.7415 11.4411C12.6538 11.4348 12.524 11.4282 12.4352 11.3975C12.4266 11.446 12.5147 11.4682 12.5225 11.5284C12.3486 11.4989 12.218 11.4255 12.1113 11.3274C12.0706 11.3855 12.034 11.4485 11.98 11.4935C11.9338 11.4411 11.9052 11.3696 11.8487 11.3274C11.7566 11.4337 11.6285 11.5039 11.4464 11.5198C11.472 11.4755 11.5249 11.4584 11.5338 11.3974C11.4531 11.4254 11.3188 11.444 11.2274 11.4327C11.2545 11.4009 11.3007 11.3891 11.3062 11.3361C10.871 11.3482 10.568 10.926 10.1328 10.9596ZM10.9817 11.9053C10.9991 12.8647 11.365 13.5524 11.9967 13.927C12.5988 13.531 12.981 12.869 12.9859 11.9053C12.6772 11.9013 12.4597 11.8564 12.2684 11.7739C12.1607 11.7277 12.0571 11.6426 11.9709 11.6163C11.7329 11.8041 11.4072 11.9049 10.9817 11.9053ZM10.9991 12.544C10.9909 12.9692 10.9229 13.4883 10.9555 13.9269C11.0447 13.6905 11.0199 13.3907 11.0344 13.0781C11.044 12.8688 11.0868 12.6569 11.008 12.5178C11.0084 12.5297 11.0038 12.5368 10.9991 12.544ZM12.9423 13.3318C12.9423 13.5671 12.9539 13.7966 13.0297 13.9354C13.0386 13.4699 12.98 12.9858 12.9776 12.5261C12.966 12.5258 12.9655 12.5153 12.9512 12.5176C12.8904 12.7486 12.9423 13.0464 12.9423 13.3318ZM11.1393 13.8307C11.2147 13.7456 11.2988 13.6692 11.3668 13.5764C11.3553 13.3869 11.3094 13.2315 11.2092 13.1303C11.1819 13.3551 10.9657 13.6452 11.1393 13.8307ZM12.6096 13.5853C12.6918 13.6611 12.7621 13.7945 12.8546 13.8307C12.9851 13.6179 12.7968 13.3896 12.7761 13.1478C12.7646 13.1475 12.7636 13.1363 12.7494 13.1393C12.6625 13.2471 12.6115 13.3917 12.6096 13.5853ZM11.4368 13.9794C11.5175 13.8936 11.5874 13.797 11.6554 13.6992C11.5466 13.6126 11.4674 13.4965 11.3668 13.4013C11.3894 13.5948 11.4021 13.7977 11.4368 13.9794ZM12.3208 13.7077C12.3974 13.7973 12.4514 13.9097 12.5484 13.9794C12.5662 13.7899 12.5806 13.5974 12.6094 13.4191C12.6086 13.4084 12.6068 13.3985 12.592 13.4013C12.5111 13.5131 12.4146 13.6094 12.3208 13.7077ZM11.1129 13.8828C11.1021 13.8265 11.0726 13.7892 11.0604 13.7344C10.9851 13.8351 10.9761 13.9857 10.938 14.1193C10.924 14.1682 10.8903 14.2081 10.8945 14.2595C10.9947 14.2164 11.0358 14.1147 11.1394 14.0755C11.158 14.1621 11.2012 14.2235 11.2268 14.303C11.3079 14.2642 11.3041 14.1411 11.3759 14.0929C11.4155 14.2339 11.457 14.3734 11.5068 14.5044C11.6001 14.4256 11.7064 14.3593 11.7344 14.2155C11.6819 14.0959 11.6337 13.972 11.5856 13.8481C11.5146 13.8966 11.4695 14.0179 11.4106 14.0495C11.3947 13.9047 11.4043 13.735 11.3492 13.6294C11.2771 13.7204 11.2029 13.8091 11.1129 13.8828ZM12.5658 14.0579C12.5021 13.9931 12.4582 13.9091 12.3908 13.8481C12.3656 13.9055 12.336 13.9621 12.3119 14.0232C12.2879 14.0842 12.2446 14.1594 12.242 14.2156C12.2354 14.353 12.3868 14.4172 12.4696 14.5046C12.508 14.368 12.5251 14.21 12.5833 14.0931C12.6376 14.1615 12.6621 14.2596 12.7409 14.3032C12.7813 14.2299 12.8093 14.144 12.846 14.0667C12.9208 14.1323 12.99 14.2033 13.0736 14.2596C13.0355 14.1016 12.9877 13.8787 12.9159 13.7257C12.8993 13.7808 12.8758 13.8337 12.846 13.883C12.7645 13.8041 12.7028 13.7052 12.6095 13.638C12.5833 13.7663 12.5727 13.9103 12.5658 14.0579ZM11.673 13.7255C11.5313 13.8265 11.6886 14.0315 11.7433 14.146C11.7681 14.045 11.791 13.9425 11.8132 13.8392C11.7654 13.8026 11.7187 13.7647 11.673 13.7255ZM12.1632 13.8479C12.1896 13.947 12.1909 14.0711 12.2421 14.1458C12.291 14.0426 12.3271 13.9272 12.373 13.8216C12.3482 13.7855 12.3322 13.7398 12.2856 13.7254C12.2648 13.7858 12.1876 13.7907 12.1632 13.8479ZM11.1042 14.1103C11.0355 14.1818 10.9691 14.2555 10.8767 14.3032C10.8157 14.4798 10.9418 14.6297 10.9991 14.7669C11.0787 14.7091 11.1128 14.6058 11.192 14.5483C11.2238 14.6508 11.2456 14.7629 11.2971 14.8457C11.3829 14.7855 11.4322 14.643 11.5154 14.6096C11.5347 14.7044 11.5336 14.819 11.5857 14.8809C11.6167 14.7136 11.6567 14.5553 11.6904 14.3906C11.6198 14.405 11.5682 14.513 11.498 14.5571C11.4495 14.4306 11.418 14.2873 11.367 14.163C11.2983 14.2112 11.2886 14.3184 11.2268 14.3732C11.1912 14.2803 11.166 14.1774 11.1042 14.1103ZM12.732 14.3732C12.682 14.3006 12.6524 14.2081 12.5744 14.163C12.5429 14.2947 12.5071 14.4225 12.4785 14.5571C12.4056 14.5153 12.3567 14.4046 12.2856 14.3906C12.3209 14.5622 12.3408 14.7497 12.408 14.8895C12.4224 14.7873 12.4399 14.6879 12.4695 14.6009C12.5483 14.6767 12.5894 14.79 12.6881 14.8459C12.7155 14.7419 12.7529 14.6483 12.7843 14.5484C12.8584 14.6117 12.8935 14.7134 12.9772 14.767C13.0257 14.6264 13.1489 14.4953 13.0994 14.3123C13.0085 14.2545 12.9407 14.1736 12.8545 14.1107C12.8034 14.1877 12.7851 14.2974 12.732 14.3732ZM11.7784 15.0644C11.7333 15.0895 11.7015 15.128 11.6556 15.1521C11.6371 15.1303 11.5831 15.0588 11.5683 15.0907C11.5562 15.1255 11.5547 15.1706 11.5419 15.2047C11.6255 15.2125 11.7907 15.1803 11.8305 15.2572C11.9489 15.2409 12.0444 15.2794 12.1369 15.2572C12.1714 15.2487 12.1983 15.2113 12.2331 15.2047C12.2983 15.1918 12.3616 15.2163 12.426 15.2047C12.4141 15.1666 12.4234 15.1081 12.3993 15.0823C12.3419 15.08 12.352 15.1452 12.2945 15.1433C12.2646 15.1033 12.2106 15.087 12.1805 15.047C12.1472 14.8036 12.1261 14.547 12.0757 14.3206C12.0558 14.5625 12.1113 14.8039 12.1017 15.0645C12.0547 15.1048 12.0321 15.17 11.9792 15.2047C11.9593 15.1461 11.8798 15.1162 11.8652 15.0385C11.8271 14.8246 11.9448 14.493 11.8919 14.3206C11.8428 14.5571 11.832 14.8325 11.7784 15.0644ZM10.6578 15.0733C10.6952 15.0969 10.7386 15.1151 10.8066 15.1081C10.864 15.0405 10.9032 14.9541 10.9728 14.8984C11.0039 14.9927 11.0365 15.0859 11.0783 15.1697H11.1393C11.1867 15.1123 11.2131 15.0335 11.2618 14.9772C11.2925 15.0456 11.3072 15.1301 11.3402 15.1958C11.3802 15.2118 11.445 15.2021 11.4978 15.2048C11.5863 15.0549 11.5518 14.8169 11.4893 14.6623C11.4089 14.7338 11.3616 14.8378 11.2792 14.9073C11.2436 14.8059 11.2307 14.6816 11.1651 14.6098C11.1041 14.6793 11.0494 14.7559 10.9904 14.8285C10.9283 14.7186 10.9108 14.5636 10.8239 14.4783C10.777 14.6847 10.7175 14.8791 10.6578 15.0733ZM12.9774 14.8283C12.9167 14.7545 12.873 14.6636 12.7934 14.6096C12.7421 14.6951 12.7341 14.8247 12.6794 14.9071C12.6121 14.8313 12.5513 14.7032 12.4696 14.6706C12.4292 14.8493 12.3764 15.0554 12.4785 15.2046C12.5285 15.2023 12.5899 15.2112 12.6273 15.1956C12.6677 15.1342 12.6742 15.0388 12.7146 14.977C12.7516 15.0422 12.7912 15.1043 12.8283 15.1695H12.8982C12.9375 15.0774 12.9646 14.973 13.0123 14.8893C13.0597 14.9732 13.1163 15.0476 13.1785 15.1168C13.2274 15.1043 13.2891 15.1048 13.3098 15.0643C13.2505 14.8756 13.201 14.6772 13.1436 14.487H13.1173C13.0759 14.6058 13.027 14.7176 12.9774 14.8283ZM10.8329 15.1259C10.9066 15.1344 10.9625 15.1597 11.043 15.1608C11.0154 15.0863 11.0019 14.9976 10.9468 14.951C10.9172 15.0174 10.8555 15.0523 10.8329 15.1259ZM12.9334 15.1606C12.9834 15.165 13.0677 15.133 13.1348 15.1258C13.1282 15.0729 13.06 15.0089 13.0211 14.9596C12.966 15.0007 12.9544 15.0859 12.9334 15.1606ZM11.1741 15.1784C11.2029 15.1962 11.263 15.1831 11.3055 15.1873C11.2888 15.1366 11.2918 15.0666 11.2445 15.0471C11.2185 15.0884 11.1878 15.1244 11.1741 15.1784ZM12.671 15.1873H12.7934C12.7819 15.1225 12.7601 15.0685 12.7057 15.0471C12.7036 15.0992 12.6585 15.1485 12.671 15.1873ZM13.52 15.0644C13.3154 15.1091 13.0494 15.1866 12.7936 15.2135C12.5967 15.2337 12.4205 15.2398 12.2333 15.2309C12.182 15.2864 12.2085 15.3501 12.2422 15.406C12.4201 15.4327 12.62 15.4203 12.7936 15.397C12.7839 15.2113 13.0044 15.1653 13.0297 15.3622C13.2188 15.3207 13.4304 15.3015 13.581 15.222C13.5826 15.1481 13.5822 15.0752 13.52 15.0644ZM11.0169 15.1958C10.8666 15.1744 10.6643 15.1034 10.5265 15.0734C10.4484 15.0564 10.4251 15.0704 10.3956 15.1083V15.2311C10.5567 15.2974 10.7547 15.3269 10.947 15.3624C10.9633 15.1648 11.1853 15.2017 11.1741 15.3972C11.3644 15.4202 11.5309 15.4329 11.7259 15.4062C11.7648 15.3448 11.7903 15.2995 11.7433 15.2311C11.5093 15.2362 11.3 15.2368 11.0169 15.1958ZM10.2205 15.3008C10.2812 15.2853 10.3282 15.2568 10.3693 15.222C10.3653 15.1794 10.3782 15.1195 10.3604 15.0907C10.2622 15.1043 10.1923 15.1906 10.2205 15.3008ZM13.6074 15.2309C13.6514 15.2597 13.6958 15.2887 13.7561 15.3008C13.7768 15.1976 13.7143 15.1043 13.6163 15.0907C13.5981 15.1222 13.6114 15.1855 13.6074 15.2309ZM11.0604 15.467C11.0794 15.4452 11.1063 15.4314 11.1304 15.4145C11.1366 15.3442 11.1277 15.2891 11.0955 15.2572C10.9417 15.2358 10.9475 15.4499 11.0604 15.467ZM12.8372 15.406C12.8497 15.4363 12.89 15.4429 12.9245 15.467C12.9604 15.4473 12.9774 15.4088 13.0034 15.3796C12.999 15.1877 12.7788 15.2662 12.8372 15.406ZM10.9292 15.3885C10.6961 15.3808 10.4614 15.2172 10.2552 15.3186C10.2486 15.3612 10.2171 15.3793 10.2289 15.4408C10.1302 15.4304 10.0165 15.5619 10.0102 15.6074C9.99654 15.7068 10.0956 15.779 10.15 15.8438C10.1438 15.9052 10.1555 15.949 10.1764 15.9833C10.9172 16.2286 12.1414 16.2338 13.0558 16.1324C13.3245 16.1024 13.7527 16.075 13.8262 15.9223V15.8171C13.9232 15.7915 13.9387 15.685 13.9661 15.5896C13.8884 15.5388 13.862 15.4371 13.7385 15.4323C13.7629 15.397 13.7214 15.365 13.7211 15.3272C13.6119 15.2343 13.4816 15.3023 13.3273 15.3357C13.1153 15.3819 12.9764 15.3823 12.9243 15.5373C12.9026 15.4833 12.8503 15.4596 12.8106 15.4232C12.6433 15.4477 12.4232 15.4655 12.2507 15.4322C12.2052 15.5032 12.1052 15.5199 12.0931 15.6246C12.0683 15.5591 12.0268 15.51 12.0317 15.4145H11.9443C11.9318 15.496 11.914 15.571 11.8741 15.6246C11.8671 15.518 11.7631 15.5085 11.7257 15.4322C11.5565 15.4714 11.3142 15.436 11.1651 15.4322C11.1052 15.4507 11.0796 15.5036 11.0342 15.5373C11.0275 15.4596 10.9642 15.4382 10.9292 15.3885ZM11.8832 15.2832C11.894 15.3283 11.9239 15.3535 11.9446 15.3887C12.0512 15.4105 12.0607 15.3359 12.0933 15.2832C12.0419 15.269 11.9345 15.269 11.8832 15.2832ZM11.7606 15.4323C11.7979 15.4704 11.835 15.5096 11.8919 15.5286C11.926 15.4378 11.9023 15.3033 11.8042 15.2921C11.8121 15.3613 11.7532 15.3633 11.7606 15.4323ZM12.1371 15.2921C12.0827 15.3313 12.0143 15.4768 12.1018 15.5286C12.1352 15.4856 12.1946 15.4696 12.2159 15.4145C12.1791 15.3842 12.1873 15.3086 12.1371 15.2921Z" fill="#EEBC31"/>
<path d="M10.2818 14.6787C10.1875 14.7619 10.0772 14.8763 9.98438 14.9322C10.0259 13.7376 10.102 12.5102 10.142 11.274C10.2324 11.3151 10.3315 11.4224 10.4133 11.5016C10.3754 12.5704 10.3258 13.55 10.2818 14.6787ZM13.9929 14.9236C13.9429 14.9333 13.8942 14.8514 13.8441 14.8096C13.7875 14.7626 13.721 14.7234 13.6865 14.6697C13.6314 13.7682 13.6447 12.8168 13.5725 11.9568C13.5617 11.8233 13.5348 11.5908 13.555 11.5102C13.5825 11.4036 13.7635 11.363 13.8178 11.2656C13.8847 12.3635 13.9304 13.741 13.9929 14.9236ZM10.492 11.5631C10.5759 11.6101 10.6367 11.6804 10.7106 11.7382C10.6896 12.4417 10.6454 13.2839 10.6143 13.9871C10.61 14.09 10.6395 14.2519 10.6054 14.3461C10.5685 14.4479 10.4256 14.5026 10.3604 14.5911C10.3987 13.5717 10.4582 12.5618 10.492 11.5631ZM13.6077 14.5735C13.5961 14.5856 13.5719 14.5549 13.5552 14.5382C13.5035 14.487 13.4313 14.4083 13.3801 14.3546C13.3358 13.4985 13.3021 12.6054 13.2664 11.7552C13.3157 11.676 13.3996 11.6316 13.4678 11.5712C13.5188 12.4923 13.5636 13.586 13.6077 14.5735ZM12.9074 11.948C12.8941 12.8446 12.5432 13.48 11.9884 13.8645C11.4215 13.4748 11.0899 12.8495 11.0344 11.948C11.4344 11.9453 11.7745 11.8362 11.9884 11.6766C12.2043 11.8576 12.5252 11.9332 12.9074 11.948ZM11.6733 11.8866C11.6578 12.2449 11.6648 12.7274 11.6648 13.1208C11.6648 13.2644 11.6353 13.4331 11.6648 13.5409C11.6804 13.5972 11.7673 13.6493 11.8136 13.6896C11.8734 13.7421 11.9223 13.7895 11.9797 13.821C12.0652 13.7539 12.2736 13.6514 12.3039 13.5407C12.3323 13.4348 12.3039 13.272 12.3039 13.1296V11.8864C12.1902 11.8305 12.0834 11.7683 11.9712 11.7113C11.8908 11.7892 11.7595 11.8151 11.6733 11.8866ZM10.4658 15.1162C10.5206 15.1344 10.6072 15.1205 10.6146 15.1865C10.5684 15.2035 10.531 15.1434 10.4658 15.1512V15.1162ZM13.5114 15.1338C13.4733 15.1656 13.4123 15.1741 13.3627 15.1948C13.3612 15.1338 13.48 15.1042 13.5114 15.1338ZM10.7284 15.2039C10.8021 15.212 10.8724 15.2232 10.912 15.2649C10.8546 15.2672 10.74 15.253 10.7284 15.2039ZM13.249 15.2126C13.2234 15.2437 13.1166 15.2728 13.0561 15.2647C13.0969 15.23 13.1853 15.1957 13.249 15.2126ZM12.7676 15.3263C12.7217 15.3407 12.6207 15.3407 12.5747 15.3263C12.5898 15.2672 12.7479 15.2723 12.7676 15.3263ZM11.4198 15.2999C11.4028 15.3647 11.2796 15.3233 11.2097 15.3348C11.2152 15.2564 11.3613 15.2999 11.4198 15.2999ZM11.682 15.3178C11.6394 15.3403 11.5473 15.3559 11.4981 15.3437C11.5157 15.2963 11.6315 15.3018 11.682 15.3178ZM12.4701 15.3526C12.403 15.3492 12.3473 15.3352 12.2861 15.3263C12.3191 15.2952 12.4701 15.2925 12.4701 15.3526ZM13.678 15.6853C13.7176 15.6842 13.6961 15.6216 13.739 15.6239C13.7327 15.6506 13.7479 15.6557 13.7475 15.6764C13.6967 15.7035 13.6531 15.7168 13.5902 15.6938C13.5214 15.7304 13.4362 15.8566 13.3452 15.7638C13.2823 15.7742 13.2916 15.8558 13.24 15.8778C13.1701 15.8227 13.1101 15.8498 13.0036 15.86C12.9721 15.8958 12.9695 15.9598 12.9073 15.9651C12.9111 15.9251 12.959 15.9295 12.9598 15.8867C12.9501 15.8582 12.9003 15.8704 12.881 15.8514C12.8646 15.7796 12.9206 15.78 12.9424 15.7462C12.9823 15.7559 12.9857 15.8018 12.9949 15.8428C13.0274 15.8432 13.05 15.8339 13.0737 15.825C13.0811 15.7742 13.107 15.7418 13.1347 15.7113C13.1332 15.6628 13.1032 15.5969 13.1084 15.5711C13.1584 15.5827 13.1343 15.6681 13.1608 15.7024C13.2281 15.6962 13.2681 15.718 13.2833 15.7634C13.3513 15.7375 13.3717 15.6583 13.4583 15.6587C13.4964 15.6587 13.5169 15.692 13.5546 15.685C13.565 15.5689 13.5347 15.3301 13.3884 15.4222C13.395 15.3763 13.4598 15.3881 13.5108 15.3873C13.6028 15.4506 13.5147 15.6935 13.678 15.6853ZM13.3714 15.7552C13.4118 15.7914 13.5131 15.7719 13.5027 15.7027C13.4781 15.6586 13.3541 15.6776 13.3714 15.7552ZM13.1965 15.7988C13.2164 15.7926 13.2409 15.7911 13.2575 15.7814C13.2575 15.6816 13.1177 15.7312 13.1965 15.7988ZM13.1177 15.8252C13.1395 15.8267 13.1448 15.8115 13.1613 15.8073C13.1609 15.7789 13.1651 15.7459 13.1349 15.7463C13.119 15.7619 13.094 15.7969 13.1177 15.8252ZM12.9074 15.843C12.9345 15.8551 12.947 15.8468 12.9688 15.8341C12.9688 15.8134 12.9536 15.8081 12.9599 15.7816C12.9237 15.7833 12.9008 15.7977 12.9074 15.843ZM13.205 15.843C13.2327 15.8663 13.2691 15.8419 13.2664 15.8074C13.2393 15.8128 13.2047 15.8097 13.205 15.843ZM10.5005 15.4314V15.475C10.488 15.4886 10.4557 15.4827 10.4305 15.4839C10.4232 15.4529 10.4294 15.4621 10.422 15.4314C10.4461 15.4102 10.4732 15.4155 10.5005 15.4314ZM10.483 15.5364C10.4842 15.552 10.4722 15.555 10.4741 15.5713C10.4385 15.572 10.4057 15.5702 10.4042 15.5364C10.4186 15.5231 10.469 15.5231 10.483 15.5364ZM12.3211 15.6065H12.356C12.3689 15.619 12.3689 15.6639 12.356 15.6765H12.3211C12.3083 15.6637 12.3083 15.619 12.3211 15.6065ZM11.3582 15.6238C11.3853 15.7378 11.4048 15.9837 11.3057 16.0001C11.207 16.016 11.2354 15.8669 11.1395 15.8599C11.081 15.8813 11.0086 15.9061 10.9471 15.8777C10.9035 15.8807 10.9105 15.9343 10.8682 15.9391C10.9245 15.8809 10.9008 15.807 10.8946 15.7375C10.9415 15.743 10.9482 15.7888 10.9471 15.843C10.9722 15.8959 11.0776 15.8605 11.1132 15.843C11.0943 15.8061 11.0706 15.7743 11.0518 15.7375C11.1054 15.7235 11.1054 15.6738 11.157 15.6765C11.2424 15.6805 11.2633 15.8127 11.1744 15.8516C11.2318 15.873 11.2388 15.9448 11.2884 15.974C11.4039 15.9491 11.3194 15.7253 11.3582 15.6238ZM11.096 15.7638C11.0945 15.7971 11.1248 15.8163 11.157 15.8341C11.3046 15.7678 11.1015 15.6234 11.096 15.7638ZM11.4723 15.6238C11.5007 15.684 11.4623 15.8221 11.4545 15.904C11.4293 15.8466 11.4598 15.7009 11.4723 15.6238ZM12.4438 15.6238C12.5023 15.6819 12.4333 15.8676 12.5048 15.9123C12.5646 15.8945 12.605 15.9026 12.6188 15.8513C12.6309 15.8059 12.568 15.7787 12.6014 15.7462C12.6795 15.75 12.6277 15.8599 12.6188 15.9038C12.5275 15.9282 12.4341 15.9368 12.356 15.9212C12.3608 15.8765 12.4077 15.8738 12.4437 15.8598C12.4767 15.7844 12.4248 15.685 12.4438 15.6238ZM12.3913 15.7289C12.3967 15.7801 12.2854 15.7507 12.3213 15.72C12.3339 15.7083 12.3905 15.7022 12.3913 15.7289ZM12.7151 16.0178C12.727 15.9709 12.7558 15.942 12.7765 15.9038C12.7521 15.8549 12.6558 15.809 12.7236 15.7462C12.8581 15.7662 12.7948 15.9858 12.7151 16.0178ZM12.7236 15.7899C12.7279 15.8237 12.7418 15.8481 12.7764 15.8514C12.7975 15.8256 12.7579 15.7608 12.7236 15.7899ZM13.6865 15.7814C13.6862 15.8326 13.624 15.8155 13.5992 15.7988C13.6128 15.75 13.6575 15.7645 13.6865 15.7814ZM11.7173 15.7727C11.7972 15.8286 11.9441 15.8589 12.0496 15.8162C12.0752 15.8407 12.0725 15.8928 12.0936 15.9214C12.104 15.9113 12.1243 15.9113 12.1461 15.9125C12.1279 15.8084 12.2727 15.7829 12.2685 15.895C12.2418 15.9447 12.1634 15.9416 12.0845 15.939C12.0487 15.9587 12.0487 16.0138 12.0146 16.0349C11.9757 16.0212 11.9436 16.0008 11.9358 15.9564C11.8143 15.9313 11.7984 15.9464 11.6555 15.939C11.6203 15.9805 11.5864 16.0663 11.5331 16.0614C11.5587 16.0167 11.6085 15.997 11.6208 15.939C11.6045 15.9057 11.5435 15.8795 11.5768 15.825C11.6608 15.8113 11.6199 15.9223 11.6905 15.9212C11.765 15.8911 11.708 15.8214 11.7173 15.7727ZM11.7436 15.9214C11.791 15.9218 11.8714 15.9229 11.9361 15.9303C11.9636 15.9525 11.9668 15.9987 12.006 16.0092C12.0348 15.9711 12.0845 15.8993 12.0413 15.843C11.9448 15.9227 11.7344 15.7393 11.7436 15.9214ZM12.1809 15.9125C12.2264 15.9203 12.2431 15.8989 12.2424 15.86C12.2092 15.8155 12.1498 15.8671 12.1809 15.9125ZM10.4395 15.8162C10.4671 15.8088 10.4666 15.8299 10.483 15.8341C10.4842 15.8608 10.4722 15.8759 10.4656 15.8951C10.415 15.8881 10.415 15.8439 10.4395 15.8162ZM10.5882 15.8515C10.6252 15.9122 10.5361 15.9447 10.5094 15.8951C10.5128 15.8577 10.5404 15.8443 10.5882 15.8515ZM10.7195 15.9214C10.711 15.9218 10.7125 15.9322 10.7106 15.9393H10.6492C10.6079 15.8671 10.7229 15.8415 10.7195 15.9214ZM12.4348 15.9739C12.4815 15.975 12.476 16.0497 12.4438 16.0616C12.4081 16.0569 12.4108 15.9894 12.4348 15.9739ZM12.5574 16.0616C12.5318 16.0519 12.5057 16.0431 12.4964 16.018C12.5229 15.9343 12.6302 16.0091 12.5574 16.0616ZM10.5447 15.4314H10.571C10.5736 15.5521 10.3908 15.7583 10.5973 15.7727C10.6311 15.7512 10.6125 15.6772 10.6583 15.6675C10.6635 15.7137 10.6405 15.7316 10.632 15.7638C10.672 15.876 10.8736 15.8123 10.7896 15.6854C10.8878 15.6869 10.8107 15.7917 10.7981 15.8341C10.7415 15.8608 10.66 15.8326 10.6145 15.7989C10.5171 15.7911 10.4313 15.7718 10.422 15.6765C10.5094 15.6412 10.5287 15.5379 10.5447 15.4314Z" fill="#EEBC31"/>
</g>
<defs>
<clipPath id="clip0_301_3661">
<rect width="24" height="24" fill="white" transform="translate(0 0.5)"/>
</clipPath>
</defs>
</svg>
