<svg width="32" height="32" viewBox="0 0 32 32" fill="none" xmlns="http://www.w3.org/2000/svg">
<g clip-path="url(#clip0_641_165)">
<path d="M15.8 0C20.1623 0 24.1129 1.76886 26.9717 4.62829C29.8311 7.4871 31.6 11.4377 31.6 15.8C31.6 20.1623 29.8311 24.1129 26.9717 26.9717C24.1129 29.8311 20.1623 31.6 15.8 31.6C11.4377 31.6 7.4871 29.8311 4.62829 26.9717C1.76886 24.1129 0 20.1623 0 15.8C0 11.4377 1.76886 7.4871 4.62829 4.62829C7.4871 1.76886 11.4377 0 15.8 0Z" fill="#999999"/>
<path d="M15.8002 1.20227C19.8305 1.20227 23.4817 2.83658 26.1227 5.47753L26.19 5.55036C28.7908 8.18636 30.3979 11.8068 30.3979 15.7994C30.3979 19.8302 28.7624 23.4809 26.1215 26.1218L26.0486 26.1891C23.4114 28.7912 19.7903 30.3977 15.8002 30.3977C11.7743 30.3977 8.12427 28.7615 5.48209 26.1187C2.83805 23.4809 1.20312 19.8302 1.20312 15.7994C1.20312 11.7685 2.83744 8.11847 5.47838 5.47753C8.11933 2.83658 11.77 1.20227 15.8002 1.20227Z" fill="white"/>
<path d="M15.7998 2.44345C23.1764 2.44345 29.1563 8.42338 29.1563 15.7994C29.1563 23.176 23.1764 29.1566 15.7998 29.1566C8.42378 29.1566 2.44385 23.176 2.44385 15.7994C2.44385 8.42338 8.42378 2.44345 15.7998 2.44345Z" fill="#FEFEFE"/>
<path d="M11.3247 11.0816V3.21246C8.77445 4.11972 6.58159 5.78057 5.0127 7.92468L11.3247 11.0816ZM11.3247 20.5184V28.3875C8.77569 27.4803 6.58344 25.8207 5.01331 23.6753L11.3247 20.5184ZM20.2461 20.5184V28.398C22.8044 27.4951 25.004 25.8342 26.5791 23.6864L20.2461 20.5184ZM20.2461 11.0816V3.20197C22.8044 4.10491 25.0053 5.76576 26.5797 7.91419L20.2461 11.0816Z" fill="#012169"/>
<path d="M27.6683 20.2536H24.699L27.7448 21.7793C27.943 21.3837 28.1219 20.977 28.2812 20.5604L27.6683 20.2536ZM27.0918 8.66532L21.7581 11.3396H24.7274L27.7485 9.82748C27.5492 9.42878 27.3295 9.04057 27.0918 8.66532ZM13.1095 18.47V28.885C13.9785 29.0621 14.8783 29.1566 15.7998 29.1566C16.7108 29.1566 17.6014 29.0646 18.4617 28.8912V18.47H28.8885C29.0631 17.6071 29.1563 16.7147 29.1563 15.7994C29.1563 14.881 29.0631 13.9836 28.8866 13.1165H18.4617V2.70946C17.5855 2.53234 16.6937 2.44322 15.7998 2.44345C14.8783 2.44345 13.9785 2.5385 13.1095 2.71501V13.1165H2.71356C2.53395 13.9995 2.44359 14.8983 2.44385 15.7994C2.44385 16.7147 2.53704 17.6071 2.71171 18.47H13.1095ZM3.89547 11.3464H6.86476L3.84733 9.83551C3.64983 10.2311 3.47023 10.6391 3.31161 11.0551L3.89547 11.3464ZM9.81245 20.2604H6.84316L3.84548 21.7608C4.04571 22.1612 4.26591 22.5514 4.50525 22.9298L9.83961 20.2604H9.81245Z" fill="#C8102E"/>
</g>
<defs>
<clipPath id="clip0_641_165">
<rect width="31.6" height="31.6" fill="white"/>
</clipPath>
</defs>
</svg>
