<svg width="54" height="54" viewBox="0 0 54 54" fill="none" xmlns="http://www.w3.org/2000/svg">
<circle opacity="0.84" cx="26.9637" cy="26.8797" r="26.7635" fill="white"/>
<path d="M34.0611 26.1764C34.2402 26.2811 34.389 26.4317 34.4925 26.6131C34.5959 26.7945 34.6504 27.0003 34.6504 27.2098C34.6504 27.4193 34.5959 27.6251 34.4925 27.8065C34.389 27.9879 34.2402 28.1385 34.0611 28.2432L22.3275 35.1026C22.1485 35.2073 21.9454 35.2624 21.7387 35.2624C21.5319 35.2624 21.3288 35.2073 21.1498 35.1026C20.9708 34.9979 20.8221 34.8473 20.7187 34.6659C20.6154 34.4846 20.5609 34.2789 20.5609 34.0695V20.3531C20.5609 20.1437 20.6154 19.938 20.7187 19.7566C20.8221 19.5753 20.9708 19.4247 21.1498 19.32C21.3288 19.2153 21.5319 19.1602 21.7387 19.1602C21.9454 19.1602 22.1485 19.2153 22.3275 19.32L34.0611 26.1764Z" fill="url(#paint0_linear_442_764)"/>
<defs>
<linearGradient id="paint0_linear_442_764" x1="34.6504" y1="27.2113" x2="20.5609" y2="27.2113" gradientUnits="userSpaceOnUse">
<stop stop-color="#00609E"/>
<stop offset="1" stop-color="#2086C6"/>
</linearGradient>
</defs>
</svg>
