<svg width="48" height="48" viewBox="0 0 48 48" fill="none" xmlns="http://www.w3.org/2000/svg">
<rect width="48" height="48" rx="24" transform="matrix(-1 0 0 1 48 0)" fill="black" fill-opacity="0.4"/>
<g clip-path="url(#clip0_305_15281)">
<path d="M16 16.7273V20.5455C16 20.9455 16.3273 21.2727 16.7273 21.2727C17.1273 21.2727 17.4545 20.9455 17.4545 20.5455V18.4909L22.0545 23.0727C22.2 23.2182 22.3818 23.2909 22.5636 23.2909C22.7455 23.2909 22.9273 23.2182 23.0727 23.0727C23.3636 22.7818 23.3636 22.3273 23.0727 22.0364L18.4909 17.4545H20.5455C20.9455 17.4545 21.2727 17.1273 21.2727 16.7273C21.2727 16.3273 20.9455 16 20.5455 16H16.7273C16.5273 16 16.3455 16.0727 16.2182 16.2182C16.0727 16.3455 16 16.5273 16 16.7273ZM26.0182 25L30.5455 29.5091V27.4545C30.5455 27.0545 30.8727 26.7273 31.2727 26.7273C31.6727 26.7273 32 27.0545 32 27.4545V31.2727C32 31.4727 31.9273 31.6545 31.7818 31.7818C31.6545 31.9273 31.4727 32 31.2727 32H27.4545C27.0545 32 26.7273 31.6727 26.7273 31.2727C26.7273 30.8727 27.0545 30.5455 27.4545 30.5455H29.5091L24.9818 26.0182C24.6909 25.7273 24.6909 25.2727 24.9818 24.9818C25.2727 24.7091 25.7455 24.7091 26.0182 25Z" fill="white"/>
</g>
<defs>
<clipPath id="clip0_305_15281">
<rect width="16" height="16" fill="white" transform="matrix(-1 0 0 1 32 16)"/>
</clipPath>
</defs>
</svg>
