<svg width="71" height="71" viewBox="0 0 71 71" fill="none" xmlns="http://www.w3.org/2000/svg">
<g id="Frame">
<g id="Group">
<path id="Vector" d="M69.8842 43.7475C69.362 38.8679 67.0614 34.3604 63.4062 31.0548C61.1148 28.9806 58.373 27.4668 55.3969 26.6329C58.5411 24.776 60.6562 21.3538 60.6562 17.4452C60.6562 11.5647 55.872 6.78052 49.9915 6.78052C44.1111 6.78052 39.3269 11.5647 39.3269 17.4452C39.3269 21.3526 41.4404 24.7739 44.583 26.6313C40.4167 27.7947 36.7183 30.2897 34.0528 33.8071C33.4869 33.1275 32.8737 32.4887 32.2179 31.8954C30.1232 29.9996 27.625 28.6047 24.9121 27.8162C27.7736 26.056 29.6862 22.8963 29.6862 19.2975C29.6862 13.7864 25.2025 9.30268 19.6914 9.30268C14.1803 9.30268 9.69661 13.7864 9.69661 19.2975C9.69661 22.8963 11.6092 26.056 14.4705 27.8162C11.7576 28.6047 9.25939 29.9996 7.16474 31.8954C3.75161 34.9819 1.6033 39.1912 1.11573 43.7477C1.09909 43.9024 1.11522 44.059 1.16307 44.2071C1.21092 44.3552 1.28942 44.4916 1.39346 44.6074C1.49751 44.7232 1.62477 44.8157 1.76695 44.8791C1.90914 44.9424 2.06307 44.9751 2.21873 44.9751H5.0726V54.0413C5.0726 55.7379 6.50216 57.1184 8.25914 57.1184H16.4201L16.2362 58.4083H12.2839C10.6956 58.4083 9.40332 59.5409 9.40332 60.9329V63.11C9.40332 63.4042 9.5202 63.6864 9.72825 63.8945C9.93629 64.1025 10.2185 64.2194 10.5127 64.2194H28.8701C29.1643 64.2194 29.4465 64.1025 29.6545 63.8945C29.8626 63.6864 29.9795 63.4042 29.9795 63.11V60.9329C29.9795 59.5409 28.6872 58.4083 27.0988 58.4083H23.1464L22.9625 57.1184H31.1236C32.8806 57.1184 34.3102 55.7379 34.3102 54.0413V44.9751H68.7812C68.9369 44.975 69.0908 44.9423 69.2329 44.8789C69.3751 44.8155 69.5023 44.7229 69.6063 44.6071C69.7104 44.4914 69.7889 44.355 69.8368 44.2069C69.8846 44.0588 69.9008 43.9023 69.8842 43.7475ZM41.5457 17.4451C41.5457 12.7881 45.3345 8.99913 49.9915 8.99913C54.6486 8.99913 58.4374 12.7879 58.4374 17.4451C58.4374 22.1022 54.6486 25.8909 49.9915 25.8909C45.3345 25.891 41.5457 22.1022 41.5457 17.4451ZM11.9154 19.2973C11.9154 15.0096 15.4037 11.5213 19.6914 11.5213C23.9791 11.5213 27.4674 15.0096 27.4674 19.2973C27.4674 23.5845 23.9801 27.0724 19.6932 27.0733H19.6896C15.4027 27.0724 11.9154 23.5845 11.9154 19.2973ZM27.0987 60.6269C27.5186 60.6269 27.7606 60.8591 27.7606 60.9327V62.0005H11.6221V60.9327C11.6221 60.8591 11.8641 60.6269 12.2839 60.6269H17.1986C17.4657 60.6269 17.7239 60.5306 17.9256 60.3555C18.1274 60.1805 18.2592 59.9386 18.2969 59.6741L19.1869 53.4295H20.1956L21.0855 59.6741C21.1231 59.9386 21.255 60.1805 21.4567 60.3555C21.6585 60.5306 21.9166 60.6269 22.1837 60.6269H27.0987ZM32.0913 54.0411C32.0913 54.5064 31.6482 54.8995 31.1235 54.8995H22.6462L22.2563 52.1635C22.2186 51.8991 22.0867 51.6571 21.885 51.4821C21.6832 51.3071 21.4251 51.2107 21.158 51.2107H18.2244C17.9573 51.2107 17.6991 51.3071 17.4974 51.4821C17.2956 51.6571 17.1638 51.8991 17.1261 52.1635L16.7361 54.8995H8.25914C7.73454 54.8995 7.29135 54.5064 7.29135 54.0411V40.5036C7.29135 40.0383 7.7344 39.6452 8.25914 39.6452H31.1235C31.6481 39.6452 32.0913 40.0383 32.0913 40.5036V54.0411ZM34.31 42.7562V40.5036C34.31 38.8069 32.8805 37.4264 31.1235 37.4264H8.25914C6.50216 37.4264 5.0726 38.8069 5.0726 40.5036V42.7562H3.49922C4.91784 34.9995 11.672 29.2929 19.6894 29.2921H19.693C27.7105 29.2929 34.4644 34.9995 35.883 42.7562H34.31ZM38.1327 42.7562C37.7255 40.2385 36.805 37.8315 35.4284 35.6846C38.765 30.9286 44.1555 28.1096 49.9916 28.1096C58.6895 28.1096 66.0113 34.3235 67.5042 42.7562H38.1327Z" fill="white" stroke="white" stroke-width="1.5"/>
</g>
</g>
</svg>
