<svg width="40" height="41" viewBox="0 0 40 41" fill="none" xmlns="http://www.w3.org/2000/svg">
<circle cx="20" cy="20" r="20" transform="matrix(1 0 0 -1 0 40.437)" fill="white"/>
<path d="M25.3033 20.9624C25.4371 20.8842 25.5483 20.7716 25.6256 20.6361C25.703 20.5005 25.7437 20.3467 25.7437 20.1902C25.7437 20.0336 25.703 19.8798 25.6256 19.7443C25.5483 19.6087 25.4371 19.4962 25.3033 19.4179L16.5349 14.292C16.4011 14.2138 16.2494 14.1726 16.0949 14.1726C15.9404 14.1726 15.7886 14.2138 15.6548 14.292C15.521 14.3702 15.4099 14.4828 15.3327 14.6183C15.2554 14.7538 15.2148 14.9075 15.2148 15.064V25.3141C15.2148 25.4706 15.2554 25.6243 15.3327 25.7598C15.4099 25.8954 15.521 26.0079 15.6548 26.0861C15.7886 26.1644 15.9404 26.2056 16.0949 26.2056C16.2494 26.2056 16.4011 26.1644 16.5349 26.0861L25.3033 20.9624Z" fill="#FF9207"/>
</svg>
