<svg width="37" height="37" viewBox="0 0 37 37" fill="none" xmlns="http://www.w3.org/2000/svg">
<g id="carbon:close-outline">
<path id="Vector" d="M18.7511 2.27393C9.88353 2.27393 2.83496 9.32249 2.83496 18.19C2.83496 27.0576 9.88353 34.1062 18.7511 34.1062C27.6186 34.1062 34.6672 27.0576 34.6672 18.19C34.6672 9.32249 27.6186 2.27393 18.7511 2.27393ZM18.7511 31.8324C11.2478 31.8324 5.10869 25.6934 5.10869 18.19C5.10869 10.6867 11.2478 4.54766 18.7511 4.54766C26.2544 4.54766 32.3935 10.6867 32.3935 18.19C32.3935 25.6934 26.2544 31.8324 18.7511 31.8324Z" fill="#D70808"/>
<path id="Vector_2" d="M24.8901 26.1481L18.751 20.009L12.612 26.1481L10.793 24.3291L16.932 18.19L10.793 12.0509L12.612 10.2319L18.751 16.371L24.8901 10.2319L26.7091 12.0509L20.57 18.19L26.7091 24.3291L24.8901 26.1481Z" fill="#D70808"/>
</g>
</svg>
